<svg width="50" height="50" viewBox="0 0 50 50" fill="none" xmlns="http://www.w3.org/2000/svg">
<path fill-rule="evenodd" clip-rule="evenodd" d="M41.5365 26.1429V25.1755H41.7162V24.9771H41.2588V25.1755H41.4385V26.1441H41.5365V26.1429ZM42.4258 26.1429V24.976H42.2857L42.1235 25.7777L41.9625 24.976H41.8224V26.1429H41.9216V25.263L42.0733 26.0216H42.176L42.3278 25.2607V26.1429H42.4258V26.1429Z" fill="#FF8E00"/>
<path fill-rule="evenodd" clip-rule="evenodd" d="M20.2676 27.2003H29.7318V10.188H20.2676V27.2003Z" fill="#FF4F00"/>
<path fill-rule="evenodd" clip-rule="evenodd" d="M20.8737 18.693C20.8721 17.0547 21.2432 15.4375 21.9589 13.9638C22.6747 12.4902 23.7162 11.1986 25.0048 10.1869C23.4088 8.93186 21.4918 8.15133 19.4731 7.93454C17.4544 7.71774 15.4154 8.07342 13.5893 8.9609C11.7632 9.84838 10.2237 11.2318 9.14689 12.9531C8.07006 14.6743 7.49934 16.6639 7.5 18.6942C7.49978 20.7243 8.07081 22.7135 9.14782 24.4344C10.2248 26.1553 11.7643 27.5384 13.5904 28.4256C15.4164 29.3128 17.4552 29.6683 19.4737 29.4514C21.4922 29.2345 23.4089 28.454 25.0048 27.1992C23.7161 26.1875 22.6745 24.8959 21.9588 23.4222C21.2431 21.9485 20.872 20.3313 20.8737 18.693" fill="#FF0000"/>
<path fill-rule="evenodd" clip-rule="evenodd" d="M42.4989 18.6929C42.4996 20.7232 41.9289 22.7128 40.852 24.434C39.7752 26.1552 38.2357 27.5387 36.4096 28.4262C34.5835 29.3137 32.5446 29.6693 30.5258 29.4525C28.5071 29.2357 26.5901 28.4552 24.9941 27.2002C26.2834 26.1887 27.3256 24.8971 28.0418 23.4231C28.7579 21.9492 29.1292 20.3316 29.1276 18.6929C29.1292 17.0545 28.758 15.4372 28.042 13.9634C27.3261 12.4897 26.2842 11.1982 24.9953 10.1867C26.5913 8.93173 28.5083 8.15121 30.527 7.93441C32.5457 7.71762 34.5847 8.07329 36.4108 8.96077C38.2369 9.84826 39.7764 11.2317 40.8532 12.953C41.9301 14.6742 42.5008 16.6637 42.5001 18.6941" fill="#FF9900"/>
<path d="M20.7892 31.0266L16.2067 41.9579H13.2173L10.9625 33.234C10.8258 32.6963 10.7073 32.4994 10.2899 32.2734C9.60997 31.9052 8.48712 31.5588 7.50098 31.3437L7.56842 31.0266H12.3806C12.9931 31.0266 13.5454 31.4349 13.6839 32.1421L14.8742 38.4673L17.8181 31.0266H20.7892ZM32.5026 38.3889C32.5154 35.5034 28.5125 35.3448 28.5398 34.0561C28.5489 33.6642 28.9226 33.2467 29.7392 33.141C30.1439 33.0882 31.2613 33.0481 32.5263 33.6295L33.0221 31.3109C32.344 31.063 31.4691 30.826 30.379 30.826C27.5847 30.826 25.616 32.3116 25.5996 34.4389C25.5814 36.0119 27.0032 36.8905 28.075 37.4137C29.1778 37.9496 29.5478 38.2941 29.5424 38.7717C29.5351 39.5044 28.6638 39.8289 27.849 39.8417C26.4272 39.8635 25.6033 39.457 24.9453 39.1508L24.433 41.546C25.0929 41.8486 26.3142 42.1129 27.5774 42.1275C30.5504 42.1293 32.4935 40.6619 32.5026 38.3889ZM39.8832 41.9579H42.4989L40.2167 31.0266H37.8033C37.2601 31.0266 36.8026 31.3419 36.6003 31.8286L32.3568 41.9579H35.3261L35.9149 40.3247H39.5441L39.8832 41.9579ZM36.7279 38.0845L38.2171 33.9795L39.0738 38.0845H36.7279ZM24.8304 31.0266L22.4918 41.9579H19.6628L22.0032 31.0266H24.8304Z" fill="#1434CB"/>
</svg>
